<?xml version="1.0" standalone="no"?>
<!DOCTYPE svg PUBLIC "-//W3C//DTD SVG 20010904//EN"
 "http://www.w3.org/TR/2001/REC-SVG-20010904/DTD/svg10.dtd">
<svg version="1.0" xmlns="http://www.w3.org/2000/svg"
 width="500.000000pt" height="500.000000pt" viewBox="0 0 500.000000 500.000000"
 preserveAspectRatio="xMidYMid meet">
<metadata>
Created by potrace 1.14, written by Peter Selinger 2001-2017
</metadata>
<g transform="translate(0.000000,500.000000) scale(0.100000,-0.100000)"
fill="#000000" stroke="none">
<path d="M606 4991 c-3 -5 -14 -7 -25 -4 -10 3 -33 -3 -50 -11 -17 -9 -34 -17
-38 -17 -5 -1 -18 -5 -31 -10 -13 -5 -30 -9 -38 -9 -8 0 -14 -4 -14 -10 0 -5
-3 -9 -7 -8 -5 1 -28 -11 -52 -27 -24 -17 -51 -34 -60 -40 -21 -12 -132 -125
-149 -151 -7 -10 -21 -32 -32 -49 -10 -16 -24 -36 -30 -42 -6 -7 -7 -13 -3
-13 4 0 4 -4 -2 -8 -9 -6 -42 -87 -50 -122 -2 -8 -4 -15 -5 -15 -12 0 -15
-325 -15 -1950 0 -1625 3 -1950 15 -1950 1 0 3 -7 5 -15 1 -8 11 -33 20 -55
10 -22 17 -46 16 -52 -1 -7 4 -13 10 -13 7 0 10 -3 6 -6 -3 -3 -1 -11 4 -18 9
-10 32 -44 64 -95 17 -27 134 -141 145 -141 6 0 13 -6 16 -14 3 -8 20 -20 37
-27 18 -7 35 -18 39 -23 4 -6 11 -11 15 -12 4 0 26 -9 48 -19 22 -10 44 -17
49 -16 4 1 14 -4 22 -10 8 -6 14 -8 14 -4 0 4 6 3 13 -3 7 -6 22 -12 32 -13
11 -1 873 -2 1915 -3 1632 -1 1942 1 1958 14 1 2 5 3 10 4 4 1 13 5 20 9 6 5
17 5 22 2 6 -3 10 -2 10 3 0 8 25 19 60 26 10 3 105 61 120 74 42 37 147 141
158 158 7 10 21 33 32 49 10 17 23 35 27 40 5 6 10 13 11 18 1 4 9 23 17 43 8
20 15 42 15 50 0 7 5 16 10 19 6 4 8 10 5 15 -3 5 -1 11 3 14 5 3 11 20 13 38
4 40 4 3797 0 3833 -2 14 -7 25 -12 25 -4 0 -6 9 -4 20 2 11 0 20 -6 20 -5 0
-9 8 -9 18 0 10 -7 27 -15 38 -8 12 -11 24 -7 28 3 4 2 10 -3 14 -6 4 -19 23
-29 42 -11 19 -29 47 -40 63 -35 46 -143 157 -154 157 -5 0 -15 7 -22 15 -22
26 -159 95 -220 111 -8 2 -33 8 -55 13 -52 13 -3791 15 -3799 2z"/>
</g>
</svg>
